<?xml version="1.0" standalone="no"?>
<!DOCTYPE svg PUBLIC "-//W3C//DTD SVG 20010904//EN"
 "http://www.w3.org/TR/2001/REC-SVG-20010904/DTD/svg10.dtd">
<svg version="1.0" xmlns="http://www.w3.org/2000/svg"
 width="150.000000pt" height="150.000000pt" viewBox="0 0 150.000000 150.000000"
 preserveAspectRatio="xMidYMid meet">
<metadata>
Created by potrace 1.11, written by Peter Selinger 2001-2013
</metadata>
<g transform="translate(0.000000,150.000000) scale(0.100000,-0.100000)"
fill="#000000" stroke="none">
<path d="M562 1465 c-58 -25 -92 -55 -123 -109 -17 -28 -46 -76 -65 -106 -24
-38 -34 -66 -34 -95 0 -48 23 -128 37 -132 12 -4 6 -41 -10 -61 -5 -6 -13 -27
-16 -44 -6 -31 -11 -34 -76 -51 -99 -26 -145 -54 -174 -107 -28 -50 -50 -149
-51 -227 0 -57 -4 -62 -32 -36 -17 15 -18 15 -18 -8 0 -13 9 -30 20 -37 11 -7
17 -18 14 -27 -5 -12 -9 -13 -20 -4 -11 9 -14 7 -14 -13 0 -13 5 -29 12 -36 9
-9 9 -21 0 -50 -7 -22 -12 -69 -12 -105 0 -57 3 -67 20 -72 17 -6 20 -15 20
-76 l0 -70 730 2 730 1 0 273 0 272 -48 79 c-88 145 -99 159 -156 212 -58 52
-61 54 -243 107 -17 6 -65 84 -66 109 0 12 6 56 13 98 8 43 11 81 7 85 -4 3
-24 -2 -45 -12 -20 -11 -40 -21 -44 -23 -5 -2 -8 6 -8 18 0 38 -71 150 -96
150 -6 0 -21 12 -35 26 -68 75 -147 100 -217 69z m299 -178 c15 -27 2 -56 -21
-50 -15 4 -20 14 -20 38 0 19 -3 42 -7 52 -6 17 -5 16 16 -2 13 -11 27 -28 32
-38z m-121 -32 c0 -8 -9 -15 -20 -15 -22 0 -27 15 -7 23 21 9 27 7 27 -8z
m-321 -87 c1 -11 -6 -18 -18 -18 -28 0 -35 43 -14 83 l17 32 7 -40 c4 -22 8
-48 8 -57z m470 30 c0 -28 -2 -30 -9 -13 -12 28 -12 45 0 45 6 0 10 -15 9 -32z
m-522 -50 c-3 -8 -6 -5 -6 6 -1 11 2 17 5 13 3 -3 4 -12 1 -19z m10 -50 c-3
-8 -6 -5 -6 6 -1 11 2 17 5 13 3 -3 4 -12 1 -19z m50 -140 c-3 -8 -6 -5 -6 6
-1 11 2 17 5 13 3 -3 4 -12 1 -19z m-87 -476 c0 -10 -17 -30 -52 -61 -38 -33
-35 -10 3 34 30 33 49 44 49 27z m-116 -153 c-6 -11 -24 -2 -24 11 0 5 7 7 15
4 8 -4 12 -10 9 -15z m373 -206 c-3 -10 -5 -4 -5 12 0 17 2 24 5 18 2 -7 2
-21 0 -30z m0 -105 c-3 -7 -5 -2 -5 12 0 14 2 19 5 13 2 -7 2 -19 0 -25z"/>
</g>
</svg>
