<?xml version="1.0"?>
<svg xmlns="http://www.w3.org/2000/svg" xmlns:xlink="http://www.w3.org/1999/xlink" xmlns:svgjs="http://svgjs.com/svgjs" version="1.1" width="512" height="512" x="0" y="0" viewBox="0 0 480 480" style="enable-background:new 0 0 512 512" xml:space="preserve"><g>
<g xmlns="http://www.w3.org/2000/svg">
	<g>
		<g>
			<path d="M376,332v-56c0-4.418-3.582-8-8-8s-8,3.582-8,8v56h-56c-4.418,0-8,3.582-8,8s3.582,8,8,8h56v56c0,4.418,3.582,8,8,8     s8-3.582,8-8v-56h56c4.418,0,8-3.582,8-8s-3.582-8-8-8H376z" fill="#ffffff" data-original="#000000" style=""/>
			<path d="M472,28H8c-4.418,0-8,3.582-8,8v320c0,4.418,3.582,8,8,8h250.64c0.8,3.496,1.656,6.968,2.784,10.448     C276.253,420.762,319.37,452.137,368,452c61.714,0.142,111.858-49.773,112-111.487c0-0.171,0-0.342,0-0.513V36     C480,31.582,476.418,28,472,28z M268.896,288.12c-1.24,2.352-2.472,4.712-3.544,7.2c-0.608,1.4-1.104,2.856-1.656,4.288     c-0.872,2.248-1.744,4.496-2.472,6.808c-0.496,1.6-0.888,3.2-1.32,4.856c-0.432,1.656-0.944,3.136-1.304,4.76h-60.16L304,147.096     l51.056,81.6c-2.576,0.296-5.104,0.688-7.56,1.16c-16.177,2.982-31.484,9.542-44.8,19.2c-0.242,0.14-0.477,0.292-0.704,0.456     c-9.413,6.821-17.683,15.091-24.504,24.504c-0.161,0.227-0.311,0.462-0.448,0.704c-2.311,3.216-4.448,6.554-6.4,10     C270,285.824,269.496,286.992,268.896,288.12z M179.568,316h-52.912L184,226.792l26.04,40.456L179.568,316z M462.888,354.776     C455.373,401.41,415.235,435.768,368,436c-41.68,0.118-78.637-26.77-91.352-66.464c-4.598-14.308-5.806-29.489-3.528-44.344     l0.208-1.152c0.128-0.616,0.24-1.24,0.296-1.6c2.576-14.072,8.321-27.373,16.8-38.896c0.168-0.231,0.323-0.471,0.464-0.72     c5.589-7.589,12.291-14.291,19.88-19.88c0.252-0.145,0.495-0.305,0.728-0.48c11.548-8.482,24.873-14.226,38.968-16.8     c5.779-1.113,11.651-1.671,17.536-1.664h0.96c53.126,0.641,95.674,44.227,95.033,97.353     C463.939,345.848,463.569,350.333,462.888,354.776z M464,282.504c-0.744-1.232-1.552-2.4-2.336-3.616     c-0.328-0.488-0.632-1-0.968-1.496h0c-1.76-2.592-3.627-5.107-5.6-7.544c-0.432-0.528-0.88-1.04-1.312-1.6     c-1.781-2.133-3.648-4.192-5.6-6.176c-0.36-0.368-0.696-0.752-1.064-1.12c-2.216-2.224-4.544-4.336-6.936-6.4     c-0.536-0.448-1.08-0.88-1.6-1.32c-2.2-1.8-4.456-3.52-6.792-5.152c-0.344-0.24-0.68-0.504-1.024-0.736     c-2.616-1.784-5.32-3.432-8.08-4.992l-1.896-1.032c-2.6-1.4-5.24-2.72-7.952-3.912c-0.28-0.128-0.56-0.272-0.84-0.392     c-2.944-1.272-5.96-2.4-9.024-3.4l-2.152-0.68c-2.96-0.912-5.96-1.736-9.024-2.4l-0.536-0.136c-3.2-0.68-6.448-1.176-9.736-1.6     c-0.8-0.096-1.6-0.184-2.4-0.264c-1.84-0.187-3.691-0.323-5.552-0.408L310.784,127.76c-2.64-3.756-7.825-4.66-11.58-2.02     c-0.785,0.552-1.468,1.235-2.02,2.02l-77.768,124.488l-28.688-44.576c-2.696-3.716-7.893-4.543-11.609-1.847     c-0.709,0.514-1.333,1.138-1.847,1.847L107.64,316H88c-4.418,0-8,3.582-8,8s3.582,8,8,8h168.296c-0.176,2.64-0.296,5.312-0.296,8     s0.096,5.36,0.272,8H16V44h448V282.504z" fill="#ffffff" data-original="#000000" style=""/>
			<path d="M152,132c0-17.673-14.327-32-32-32s-32,14.327-32,32s14.327,32,32,32S152,149.673,152,132z M104,132     c0-8.837,7.163-16,16-16s16,7.163,16,16s-7.163,16-16,16S104,140.836,104,132z" fill="#ffffff" data-original="#000000" style=""/>
			<path d="M120,92c4.418,0,8-3.582,8-8V68c0-4.418-3.582-8-8-8s-8,3.582-8,8v16C112,88.418,115.582,92,120,92z" fill="#ffffff" data-original="#000000" style=""/>
			<path d="M81.072,80.544l8,13.856c2.234,3.812,7.136,5.09,10.947,2.856c3.776-2.214,5.072-7.051,2.909-10.856l-8-13.856     c-2.184-3.841-7.068-5.184-10.909-3s-5.184,7.068-3,10.909C81.037,80.483,81.054,80.513,81.072,80.544z" fill="#ffffff" data-original="#000000" style=""/>
			<path d="M60.576,106.928l13.856,8c3.812,2.234,8.713,0.956,10.947-2.856c2.234-3.812,0.956-8.713-2.856-10.947     c-0.03-0.018-0.061-0.035-0.092-0.053l-13.856-8c-3.841-2.184-8.725-0.841-10.909,3C55.504,99.877,56.8,104.714,60.576,106.928z" fill="#ffffff" data-original="#000000" style=""/>
			<path d="M56,140h16c4.418,0,8-3.582,8-8s-3.582-8-8-8H56c-4.418,0-8,3.582-8,8S51.582,140,56,140z" fill="#ffffff" data-original="#000000" style=""/>
			<path d="M85.36,152c-2.209-3.826-7.102-5.137-10.928-2.928l-13.856,8c-3.841,2.184-5.184,7.068-3,10.909s7.068,5.184,10.909,3     c0.031-0.017,0.061-0.035,0.092-0.053l13.856-8C86.258,160.719,87.569,155.826,85.36,152z" fill="#ffffff" data-original="#000000" style=""/>
			<path d="M100,166.64c-3.826-2.209-8.719-0.898-10.928,2.928l-8,13.856c-2.234,3.812-0.956,8.713,2.856,10.947     c3.812,2.234,8.713,0.956,10.947-2.856c0.018-0.03,0.035-0.061,0.053-0.092l8-13.856C105.137,173.742,103.826,168.849,100,166.64     z" fill="#ffffff" data-original="#000000" style=""/>
			<path d="M120,172c-4.418,0-8,3.582-8,8v16c0,4.418,3.582,8,8,8s8-3.582,8-8v-16C128,175.582,124.418,172,120,172z" fill="#ffffff" data-original="#000000" style=""/>
			<path d="M158.928,183.456l-8-13.856c-2.184-3.841-7.068-5.184-10.909-3c-3.841,2.184-5.184,7.068-3,10.909     c0.017,0.031,0.035,0.061,0.053,0.092l8,13.856c2.184,3.841,7.068,5.184,10.909,3s5.184-7.068,3-10.909     C158.963,183.517,158.946,183.486,158.928,183.456z" fill="#ffffff" data-original="#000000" style=""/>
			<path d="M179.516,157.125c-0.03-0.018-0.061-0.035-0.092-0.053l-13.856-8c-3.812-2.234-8.713-0.956-10.947,2.856     c-2.234,3.812-0.956,8.713,2.856,10.947c0.03,0.018,0.061,0.035,0.092,0.053l13.856,8c3.812,2.234,8.713,0.956,10.947-2.856     C184.606,164.261,183.327,159.359,179.516,157.125z" fill="#ffffff" data-original="#000000" style=""/>
			<path d="M160,132c0,4.418,3.582,8,8,8h16c4.418,0,8-3.582,8-8s-3.582-8-8-8h-16C163.582,124,160,127.582,160,132z" fill="#ffffff" data-original="#000000" style=""/>
			<path d="M154.64,112c2.209,3.826,7.102,5.137,10.928,2.928l13.856-8c3.841-2.184,5.184-7.068,3-10.909s-7.068-5.184-10.909-3     c-0.031,0.017-0.061,0.035-0.092,0.053l-13.856,8C153.742,103.281,152.431,108.174,154.64,112z" fill="#ffffff" data-original="#000000" style=""/>
			<path d="M140,97.36c3.826,2.209,8.719,0.898,10.928-2.928l8-13.856c2.184-3.841,0.841-8.725-3-10.909     c-3.805-2.163-8.642-0.867-10.856,2.909l-8,13.856C134.863,90.258,136.174,95.151,140,97.36z" fill="#ffffff" data-original="#000000" style=""/>
			<path d="M40,332h16c4.418,0,8-3.582,8-8s-3.582-8-8-8H40c-4.418,0-8,3.582-8,8S35.582,332,40,332z" fill="#ffffff" data-original="#000000" style=""/>
		</g>
	</g>
</g>
<g xmlns="http://www.w3.org/2000/svg">
</g>
<g xmlns="http://www.w3.org/2000/svg">
</g>
<g xmlns="http://www.w3.org/2000/svg">
</g>
<g xmlns="http://www.w3.org/2000/svg">
</g>
<g xmlns="http://www.w3.org/2000/svg">
</g>
<g xmlns="http://www.w3.org/2000/svg">
</g>
<g xmlns="http://www.w3.org/2000/svg">
</g>
<g xmlns="http://www.w3.org/2000/svg">
</g>
<g xmlns="http://www.w3.org/2000/svg">
</g>
<g xmlns="http://www.w3.org/2000/svg">
</g>
<g xmlns="http://www.w3.org/2000/svg">
</g>
<g xmlns="http://www.w3.org/2000/svg">
</g>
<g xmlns="http://www.w3.org/2000/svg">
</g>
<g xmlns="http://www.w3.org/2000/svg">
</g>
<g xmlns="http://www.w3.org/2000/svg">
</g>
</g></svg>
